PathFileType	3	(X/Y/Z)	RCH0000002 BBF 06.c3d
DataRate	CameraRate	NumFrames	NumMarkers	Units	OrigDataRate	OrigDataStartFrame	OrigNumFrames
100.0	100.0	15	23	mm	100.0	370	380
Frame#	Time	LASI			RASI			LPAT			LKNE			LANK			LMED			LTOE			RPAT			RKNE			RANK			RTOE			RMED			RHEE			RPSI			T2			T10			LPSI			LHEE			MAN			RTHI			LTHI			RTIB			LTIB			
		X1	Y1	Z1	X2	Y2	Z2	X3	Y3	Z3	X4	Y4	Z4	X5	Y5	Z5	X6	Y6	Z6	X7	Y7	Z7	X8	Y8	Z8	X9	Y9	Z9	X10	Y10	Z10	X11	Y11	Z11	X12	Y12	Z12	X13	Y13	Z13	X14	Y14	Z14	X15	Y15	Z15	X16	Y16	Z16	X17	Y17	Z17	X18	Y18	Z18	X19	Y19	Z19	X20	Y20	Z20	X21	Y21	Z21	X22	Y22	Z22	X23	Y23	Z23	

370	3.690	-560.75048	95.11864	649.92628	-524.13964	-78.54224	644.54697	-561.37342	54.90393	379.64957	-612.00053	108.63416	342.11015	-673.83176	103.47516	72.22829	-663.08400	34.99105	89.96032	-620.14354	73.67994	68.34969	-501.78786	-24.46261	357.00993	-555.37468	-78.14698	332.00097	-747.34768	-103.77638	145.50299	-723.68129	-66.69462	106.82024	-753.96879	-34.75919	158.25425	-764.56706	-72.28690	197.55283	-639.62627	-49.73452	703.29390	-671.22932	11.67874	970.88845	-634.07041	-6.84263	790.01591	-654.29716	19.81948	706.11298	-707.97653	59.65021	104.05308	-540.31706	42.53491	958.21574	-534.67073	-150.16922	439.96743	-618.97824	176.96094	467.78428	-630.05964	-154.03683	257.94037	-648.76228	170.06748	227.69030	
371	3.700	-554.95846	95.79959	650.29489	-516.74487	-77.50374	645.04815	-559.72153	55.58908	379.24722	-611.19458	109.00458	342.38650	-673.97685	103.21242	72.62438	-662.57541	34.82357	90.43586	-620.03191	73.78312	68.47517	-484.26845	-23.99294	361.17411	-537.42417	-77.55282	334.40986	-727.09842	-102.85759	146.04352	-701.61845	-66.35064	108.23864	-733.46073	-33.74218	158.12847	-745.27394	-70.88444	197.38605	-632.58654	-49.90888	703.57671	-662.86016	11.51154	971.86640	-626.99464	-6.74764	790.60349	-647.69775	19.41614	706.57565	-707.61034	59.14708	104.68577	-531.90898	41.82774	958.40600	-520.97755	-149.89082	442.91816	-616.44897	177.24788	468.20585	-611.67758	-153.24175	260.23668	-649.17057	170.11485	228.02662	
372	3.710	-549.17349	96.34360	650.55034	-509.44001	-76.59540	645.46162	-557.90663	56.27870	378.80974	-610.19603	109.38354	342.64935	-674.02605	103.12684	73.02321	-662.08735	34.81224	90.92207	-619.88328	73.98670	68.59286	-467.00522	-23.62005	365.70895	-519.57615	-77.06285	337.12404	-706.18526	-101.93282	146.12097	-678.86246	-65.95894	109.32852	-712.32834	-32.74688	157.55819	-725.46310	-69.51557	196.69131	-625.64569	-50.17236	703.69946	-654.46109	11.45507	972.70297	-619.98484	-6.65313	791.04999	-641.17631	18.91661	706.86902	-707.18805	58.87607	105.33716	-523.45058	41.07966	958.40212	-507.35673	-149.70150	446.01114	-613.81258	177.48816	468.61133	-593.14998	-152.52293	262.46548	-649.27223	170.25725	228.37624	
373	3.720	-543.36677	96.75181	650.71392	-502.19736	-75.82038	645.76777	-555.93530	56.97561	378.34383	-609.00787	109.78628	342.90912	-673.98091	103.21538	73.42898	-661.61884	34.95869	91.42303	-619.69511	74.29093	68.70746	-450.07350	-23.32103	370.54811	-501.89694	-76.65367	340.09556	-684.64681	-101.03871	145.76598	-655.48191	-65.55546	110.10585	-690.60380	-31.79931	156.56642	-705.15509	-68.21072	195.48694	-618.77827	-50.53164	703.65631	-646.00562	11.48599	973.40100	-613.01301	-6.58902	791.36835	-634.70542	18.31811	707.00484	-706.71350	58.83473	106.00956	-514.91951	40.28765	958.20799	-493.84896	-149.57914	449.19737	-611.04151	177.69928	469.01276	-574.50784	-151.88119	264.60565	-649.07943	170.50641	228.74088	
374	3.730	-537.50512	97.02670	650.80538	-494.98946	-75.18037	645.95267	-553.81654	57.67376	377.85703	-607.63659	110.21793	343.17591	-673.84929	103.45895	73.84718	-661.16453	35.24992	91.94186	-619.46724	74.68554	68.82355	-433.55066	-23.07581	375.61411	-484.46090	-76.30394	343.26712	-662.51784	-100.21102	145.00941	-631.53665	-65.17373	110.58890	-668.32053	-30.92530	155.17668	-684.37257	-67.00216	193.78960	-611.95647	-50.98635	703.44603	-637.46842	11.57413	973.96687	-606.05184	-6.58125	791.57325	-628.25315	17.62530	706.99628	-706.19177	59.00015	106.70642	-506.29527	39.44632	957.83137	-480.50803	-149.50611	452.42266	-608.10800	177.89314	469.41844	-555.78337	-151.31819	266.63235	-648.62024	170.85873	229.12430	
375	3.740	-531.55155	97.17246	650.84165	-487.78809	-74.67531	646.00741	-551.55779	58.36202	377.35684	-606.08867	110.67582	343.45888	-673.64290	103.82844	74.28411	-660.71518	35.66356	92.48109	-619.20145	75.15335	68.94513	-417.51370	-22.86708	380.81666	-467.34841	-75.99546	346.57065	-639.83099	-99.48259	143.87649	-607.08255	-64.84110	110.79250	-645.51787	-30.15050	153.40873	-663.14207	-65.92442	191.61057	-605.14955	-51.53051	703.07099	-628.82615	11.68430	974.40895	-599.07443	-6.65133	791.67939	-621.78349	16.84852	706.85639	-705.62806	59.33639	107.43274	-497.55980	38.54843	957.28310	-467.39474	-149.46890	455.62626	-604.98448	178.07690	469.83287	-537.00972	-150.83645	268.51285	-647.93125	171.29931	229.53215	
376	3.750	-525.46622	97.19520	650.83575	-480.56354	-74.30308	645.92709	-549.16102	59.02759	376.84949	-604.36672	111.15187	343.76532	-673.37478	104.29055	74.74644	-660.25846	36.17286	93.04295	-618.90070	75.67380	69.07520	-402.03622	-22.67924	386.05147	-450.64246	-75.71351	349.92637	-616.62140	-98.88212	142.38318	-582.17875	-64.57651	110.72384	-622.24751	-29.50055	151.27593	-641.49753	-65.01470	188.95436	-598.32367	-52.15418	702.53588	-620.05843	11.77821	974.73605	-592.05400	-6.81605	791.69993	-615.25718	16.00190	706.59646	-705.02635	59.80188	108.19514	-488.69799	37.58552	956.57634	-454.56925	-149.45691	458.74045	-601.64329	178.25404	470.25673	-518.22102	-150.43933	270.20378	-647.04983	171.80640	229.97133	
377	3.760	-519.20767	97.10317	650.79587	-473.28410	-74.05929	645.70983	-546.61931	59.65854	376.33850	-602.46588	111.63484	344.09944	-673.05693	104.81262	75.24077	-659.78006	36.75076	93.62938	-618.56825	76.22593	69.21539	-387.18475	-22.49688	391.20017	-434.42426	-75.44670	353.24266	-592.93395	-98.43382	140.53517	-556.89703	-64.39006	110.38034	-598.58106	-29.00156	148.78451	-619.48571	-64.31305	185.81965	-591.44205	-52.84508	701.84635	-611.14861	11.81638	974.95599	-584.96372	-7.08746	791.64508	-608.63292	15.10147	706.22462	-704.38837	60.35551	109.00171	-479.69816	36.54859	955.72579	-442.08276	-149.46065	461.69133	-598.05581	178.42531	470.68654	-499.45281	-150.13072	271.65067	-646.00677	172.35533	230.44898	
378	3.770	-512.73437	96.90677	650.72478	-465.91605	-73.93726	645.35583	-543.91405	60.24515	375.82310	-600.37051	112.11199	344.46076	-672.69846	105.36608	75.77345	-659.26481	37.37249	94.24209	-618.20679	76.79049	69.36581	-373.01491	-22.30298	396.13184	-418.76832	-75.18634	356.41739	-568.83270	-98.15782	138.32930	-531.33195	-64.28427	109.74974	-574.61797	-28.68045	145.93497	-597.17301	-63.86198	182.20273	-584.46565	-53.59006	701.00800	-602.08448	11.76001	975.07444	-577.77656	-7.47306	791.52101	-601.86873	14.16347	705.74469	-703.71253	60.96096	109.86163	-470.55237	35.42883	954.74694	-429.97008	-149.46985	464.40101	-594.19133	178.58946	471.11407	-480.74330	-149.91453	272.79006	-644.82024	172.92152	230.97113	
379	3.780	-506.00629	96.61830	650.61938	-458.42403	-73.92820	644.86668	-541.01288	60.78020	375.29661	-598.05167	112.57002	344.84251	-672.30413	105.92806	76.35069	-658.69767	38.01670	94.88240	-617.81754	77.35101	69.52506	-359.56769	-22.07757	400.70670	-403.73752	-74.92572	359.34085	-544.41146	-98.07110	135.75745	-505.61066	-64.25673	108.81253	-550.49272	-28.56492	142.72547	-574.65306	-63.70541	178.10270	-577.35417	-54.37615	700.02573	-592.85887	11.57278	975.09414	-570.46526	-7.97590	791.32918	-594.92350	13.20321	705.15576	-702.99316	61.58877	110.78489	-461.25675	34.21837	953.65562	-418.24412	-149.47188	466.79098	-590.01589	178.74366	471.52565	-462.13533	-149.79396	273.55424	-643.49142	173.48237	231.54132	
380	3.790	-498.98659	96.25145	650.47057	-450.77198	-74.02163	644.24511	-537.86856	61.25843	374.74516	-595.46549	112.99554	345.22995	-671.87337	106.48166	76.97898	-658.06419	38.66535	95.55138	-617.39951	77.89396	69.69053	-346.86654	-21.79720	404.78194	-389.37896	-74.65939	361.90055	-519.80405	-98.18846	132.81176	-479.90095	-64.30342	107.54631	-526.38001	-28.68282	139.15657	-552.05394	-63.88656	173.52794	-570.06745	-55.19122	698.90383	-583.47003	11.22239	975.01442	-563.00249	-8.59473	791.06615	-587.75860	12.23435	704.45226	-702.21955	62.21663	111.78208	-451.81161	32.91100	952.46761	-406.89339	-149.45104	468.78644	-585.49155	178.88351	471.90133	-443.67917	-149.77072	273.87792	-642.00195	174.01793	232.15925	
381	3.800	-491.64322	95.82054	650.26352	-442.92451	-74.20600	643.49514	-534.41880	61.67541	374.14675	-592.55263	113.37488	345.59913	-671.39937	107.01486	77.66582	-657.35032	39.30264	96.25009	-616.94878	78.40812	69.85892	-334.91536	-21.43572	408.21954	-375.72107	-74.38275	363.98766	-495.19242	-98.52333	129.49087	-454.41598	-64.42211	105.93150	-502.49688	-29.06078	135.23701	-529.54361	-64.44498	168.50274	-562.56712	-56.02418	697.64669	-573.92190	10.68202	974.83133	-555.36122	-9.32405	790.72384	-580.33952	11.26882	703.62492	-701.37509	62.82819	112.86461	-442.22152	31.50285	951.19852	-395.88292	-149.38885	470.32114	-580.57629	179.00277	472.21438	-425.43588	-149.84410	273.70611	-640.31313	174.51073	232.81970	
382	3.810	-483.95046	95.33963	649.97820	-434.84863	-74.46946	642.62276	-530.58697	62.02629	373.47101	-589.23888	113.69373	345.91609	-670.86816	107.51894	78.42065	-656.54143	39.91372	96.98014	-616.45769	78.88343	70.02705	-323.69812	-20.96656	410.89561	-362.77267	-74.09224	365.50468	-470.81084	-99.08789	125.80586	-429.41453	-64.61519	103.95761	-479.10054	-29.72216	130.98921	-507.33213	-65.41279	163.07321	-554.81843	-56.86485	696.26020	-564.22413	9.93148	974.53811	-547.51530	-10.15408	790.29051	-572.63731	10.31704	702.66231	-700.43599	63.41117	114.04513	-432.49531	29.99294	949.86389	-385.15868	-149.26570	471.34209	-575.22459	179.09289	472.43120	-407.48081	-150.01038	273.00186	-638.36644	174.94507	233.51188	
383	3.820	-475.89027	94.82143	649.59050	-426.51575	-74.80078	641.63692	-526.28380	62.30462	372.67989	-585.43682	113.93674	346.13711	-670.25738	107.98666	79.25593	-655.62054	40.48347	97.74462	-615.91395	79.30976	70.19288	-313.18009	-20.36639	412.71029	-350.52404	-73.78602	366.37353	-446.94436	-99.89238	121.78545	-405.19558	-64.89110	101.62927	-456.48131	-30.68433	126.45409	-485.66925	-66.81032	157.31142	-546.79211	-57.70355	694.75366	-554.39191	8.95832	974.12623	-539.44039	-11.07066	789.75207	-564.63009	9.38855	701.55298	-699.36988	63.95542	115.33840	-422.64585	28.38371	948.47950	-374.65500	-149.06354	471.81379	-569.38884	179.14249	472.51203	-389.90646	-150.26257	271.75266	-636.08506	175.30623	234.21935	
384	3.830	-467.45338	94.27625	649.07365	-417.90372	-75.19017	640.55084	-521.41016	62.50156	371.72931	-581.04863	114.08717	346.20990	-669.53471	108.41073	80.18818	-654.56592	40.99580	98.54927	-615.29942	79.67575	70.35675	-303.31077	-19.61994	413.59726	-338.95012	-73.46534	366.54329	-423.92016	-100.94347	117.47936	-382.08654	-65.26430	98.97092	-434.95025	-31.95557	121.69407	-464.83639	-68.64175	151.31684	-538.46619	-58.53064	693.14192	-544.44557	7.75859	973.58683	-531.11511	-12.05520	789.09406	-556.30414	8.49260	700.28804	-698.13405	64.45145	116.76221	-412.68982	26.68139	947.06178	-364.30398	-148.76951	471.72147	-563.02137	179.13693	472.41256	-372.82395	-150.59083	269.97417	-633.37603	175.57983	234.92047	
